<svg id="Ebene_1" data-name="Ebene 1" xmlns="http://www.w3.org/2000/svg" viewBox="0 0 555.2286 161.5138"><title>partner</title><path d="M3.5717,84.7152a5.7539,5.7539,0,0,0,.3024-1.2176,88.5469,88.5469,0,0,1,6.2713-30.3165c.9151-2.317,1.6471-2.6524,3.933-1.663A81.0092,81.0092,0,0,1,37.5463,67.09a78.8739,78.8739,0,0,1,21.4062,33.3455,70.92,70.92,0,0,1,3.3269,17.59c.1883,2.9851.483,5.9779.4263,8.9615a130.59,130.59,0,0,1-5.1711,34.8046c-.5979,2.0175-1.5544,2.4884-3.5,1.7138a76.343,76.343,0,0,1-30.013-21.5278A82.3544,82.3544,0,0,1,5.2113,102.27c-.7492-4.1431-.8942-8.395-1.3324-12.5953a11.3716,11.3716,0,0,0-.3072-1.3595Z" transform="translate(-3.5717 -2.3952)" fill="#83b817"/><path d="M83.9717,2.3952a4.0177,4.0177,0,0,0,.8813.2246,83.24,83.24,0,0,1,43.2287,13.1,116.0516,116.0516,0,0,1,10.6712,7.9215,6.9438,6.9438,0,0,1,.8528,10.0487,7.0264,7.0264,0,0,1-10.0782.6248A69.7176,69.7176,0,0,0,96.94,18.1935Q64.0355,11.8448,37.5849,32.5742c-4.324,3.3851-10.3724,1.4163-11.512-3.8551a6.8788,6.8788,0,0,1,2.6732-7.2236,85.1344,85.1344,0,0,1,35.08-16.8928A79.3488,79.3488,0,0,1,80.0819,2.62a4.9628,4.9628,0,0,0,1.01-.2245Z" transform="translate(-3.5717 -2.3952)" fill="#fff"/><path d="M105.84,134.4635c0-8.6393.0309-17.2789-.0262-25.9179a6.4553,6.4553,0,0,1,1.6339-4.4727q16.6463-19.5416,33.2517-39.118c3.5985-4.2355,7.1856-8.4807,10.8011-12.7016,1.7783-2.0762,3.571-1.7272,4.56.8541a81.7464,81.7464,0,0,1,5.3776,23.2277c1.72,22.9473-3.6518,43.9076-17.8119,62.2763A75.7658,75.7658,0,0,1,109.4086,163.6c-2.2715.8483-3.5645-.07-3.5663-2.4983Q105.8324,147.7824,105.84,134.4635Z" transform="translate(-3.5717 -2.3952)" fill="#0080ac"/><path d="M83.543,79.2005a22.5655,22.5655,0,1,1,22.6913-22.4352A22.5226,22.5226,0,0,1,83.543,79.2005Z" transform="translate(-3.5717 -2.3952)" fill="#fff"/><path d="M396.9178,77.498c-.1527,4.2548-.1427,8.4784-1.4631,12.5883a20.0176,20.0176,0,0,1-18.4562,14.306,26.7527,26.7527,0,0,1-12.7743-1.8612c-6.6174-2.9292-10.3885-8.2585-11.5066-15.1836a54.5784,54.5784,0,0,1,.3638-21.4263c2.0543-8.6356,8.7323-14.2807,17.5915-15.2785a26.6153,26.6153,0,0,1,13.4152,1.5163c6.9071,2.8639,10.71,8.2907,12.0147,15.4548A96.2986,96.2986,0,0,1,396.9178,77.498Zm-12.1806.4583c-.2754-3.2887-.2855-6.1095-.7953-8.8368-.6919-3.7008-2.6662-6.5911-6.5137-7.72-6.0682-1.78-11.4712,1.5336-12.637,7.9226a55.1905,55.1905,0,0,0-.2023,15.1744,10.5578,10.5578,0,0,0,3.4568,7.1818,9.5979,9.5979,0,0,0,15.6255-4.9536C384.4539,83.7575,384.4405,80.58,384.7372,77.9563Z" transform="translate(-3.5717 -2.3952)" fill="#fff"/><path d="M289.9268,99.8221c-.5459.3168-.9579.5346-1.3483.7859A24.2506,24.2506,0,0,1,271.242,104.08c-6.0956-.9245-10.0529-4.8293-11.2554-11.29a45.1673,45.1673,0,0,1-.7843-7.8473c-.087-10.4385-.037-20.8783-.035-31.3176,0-2.0835.4363-2.5131,2.532-2.5152q3.66-.0036,7.32.001c1.7667.004,2.3533.5872,2.3541,2.3736.0047,10.4393-.0138,20.8787.0213,31.3179a22.55,22.55,0,0,0,.43,4.2786c.62,3.1294,2.6423,4.7488,5.82,5.0577a16.3853,16.3853,0,0,0,8.5626-1.81c1.2638-.5824,2.8872-1.0077,3.5774-2.0261.6213-.9169.2181-2.5468.219-3.8622q.0117-16.259.0048-32.5179c0-2.3773.4285-2.8123,2.7645-2.813,2.48-.0008,4.96-.0106,7.4394.0055a1.8924,1.8924,0,0,1,2.0933,1.95c.03.3173.0093.6395.0093.9595q0,23.3984,0,46.7969c0,2.451-.5143,2.9722-2.9419,2.9765q-3.3.0059-6.6-.0007c-2.2343-.0072-2.7357-.5141-2.7678-2.752C290,100.7008,289.9619,100.356,289.9268,99.8221Z" transform="translate(-3.5717 -2.3952)" fill="#fff"/><path d="M438.4475,99.7131c-.74.4451-1.2123.7164-1.672,1.0075a24.2042,24.2042,0,0,1-17.1264,3.3627c-6.2364-.9443-10.1575-4.906-11.3509-11.6166a46.4693,46.4693,0,0,1-.7365-7.7349c-.0812-10.3969-.0345-20.7948-.0328-31.1923,0-1.9014.5166-2.4249,2.3931-2.4285q3.5992-.0068,7.1983-.0008c2.1452.0017,2.6141.4565,2.6149,2.5836.0039,10.2776-.0143,20.5552.02,30.8327a25.3259,25.3259,0,0,0,.4139,4.4023c.5882,3.2487,2.6416,4.9143,5.9363,5.2164a17.0032,17.0032,0,0,0,8.7733-1.9464c3.57-1.64,3.5673-1.6457,3.5673-5.5743q0-16.4961.0009-32.9921c0-2.0926.43-2.52,2.52-2.522q3.5992-.0036,7.1983,0c1.9315.0027,2.4877.551,2.488,2.4831q.0042,23.8743.0015,47.7486c0,.12.0022.24-.0019.36-.0438,1.2653-.609,2.0134-1.861,2.0464q-4.2549.1124-8.5145,0c-1.3116-.035-1.8009-.6959-1.8283-2.0283C438.438,101.1647,438.4475,100.6087,438.4475,99.7131Z" transform="translate(-3.5717 -2.3952)" fill="#fff"/><path d="M207.4473,76.4077c0-8.1583-.0724-16.3176.0452-24.4741a28.9207,28.9207,0,0,1,.9878-7.0846c1.6214-5.9753,5.872-9.1762,11.7512-10.4918a45.1339,45.1339,0,0,1,12.1711-.7229c4.7771.2382,9.5408.7662,14.3053,1.22,1.56.1486,1.8834.5805,1.9019,2.1755q.0313,2.6991,0,5.3987c-.02,1.5451-.6481,2.1633-2.21,2.1657-6.3187.01-12.6373-.0014-18.956.0127a13.1826,13.1826,0,0,0-2.1422.1845c-2.9748.4993-4.4072,1.966-4.8134,4.9591a24.9783,24.9783,0,0,0-.2231,3.1026c-.0293,2.9191.03,5.84-.0319,8.7575-.0216,1.0188.33,1.2809,1.3035,1.2769,7.7582-.0324,15.5166-.0188,23.2749-.017,2.243.0005,2.7187.4836,2.7232,2.7593.0035,1.76.02,3.52-.0061,5.2788-.0262,1.7249-.6055,2.2876-2.33,2.2889q-11.6974.0093-23.395.0038c-1.5466,0-1.5485.0043-1.5486,1.5906q-.001,13.1371-.0007,26.2744c0,2.2024-.5289,2.7266-2.774,2.7319q-3.6592.0087-7.3185-.0008c-2.1894-.0078-2.7138-.5276-2.7143-2.6751Q207.4449,88.765,207.4473,76.4077Z" transform="translate(-3.5717 -2.3952)" fill="#fff"/><path d="M540.3134,50.2531a79.5211,79.5211,0,0,1,15.2154,1.919c1.53.3318,1.9584.8992,1.9661,2.5056.0078,1.6393.0114,3.2787-.0014,4.9179-.0128,1.6273-.52,2.0006-2.122,1.8821-5.1751-.3827-10.3517-.7605-15.5336-1.0229A10.526,10.526,0,0,0,536.0773,61a3.1461,3.1461,0,0,0-1.01,5.588,18.2682,18.2682,0,0,0,2.2748,1.5491c4.3235,2.6534,8.6721,5.2661,12.9809,7.943,3.0953,1.9229,5.9855,4.1639,7.3138,7.6845,3.04,8.0557.3735,17.5987-10.9906,20.113a37.1551,37.1551,0,0,1-11.5695.4011c-3.6856-.345-7.3489-.9753-11.0023-1.5964-1.7142-.2914-2.0638-.8963-2.0661-2.6633-.0022-1.5994-.0123-3.1988.0038-4.798.0129-1.2951.6959-1.8686,1.9771-1.7751,5.1356.3746,10.27.7763,15.4107,1.0643a15.5085,15.5085,0,0,0,3.794-.4169,3.42,3.42,0,0,0,2.9586-2.6256,3.94,3.94,0,0,0-1.1668-4.261,32.9757,32.9757,0,0,0-3.2125-2.2942c-4.172-2.595-8.3928-5.1118-12.5526-7.726-3.84-2.4133-6.6938-5.6793-7.4213-10.2671-1.356-8.5517,2.571-14.5082,11.2549-15.9718C535.4452,50.5443,537.8922,50.4753,540.3134,50.2531Z" transform="translate(-3.5717 -2.3952)" fill="#fff"/><path d="M322.109,60.2426c-2.8385-.43-5.5174-.8533-8.2018-1.2376-1.9979-.2861-2.4182-.7425-2.4206-2.79-.0012-1.04-.015-2.08.0053-3.1188.0271-1.3807.602-1.97,1.9687-1.98,2.479-.0183,4.9587-.0391,7.4367.01.9146.0182,1.27-.22,1.2344-1.2038-.0747-2.0765-.003-4.1578-.03-6.2367a1.8986,1.8986,0,0,1,1.68-2.1218c2.8254-.516,5.6512-1.0451,8.4947-1.4414,1.86-.2592,2.1965.1335,2.1978,1.9852q.0027,3.7786,0,7.5571V51.11c1.3765,0,2.6041,0,3.8318,0,1.4794,0,2.959-.0117,4.4382.0047a1.7911,1.7911,0,0,1,2.0413,1.9436c.0314,1.7188.0345,3.4391-.0016,5.1577a1.7994,1.7994,0,0,1-2.0271,1.9776c-2.279.017-4.5582.0052-6.8374.0054h-1.3531c-.0381.4369-.0884.7443-.0884,1.0518q.0041,15.054.0256,30.1081a10.3687,10.3687,0,0,0,.203,1.7791,1.9084,1.9084,0,0,0,1.99,1.7133c1.7977.0491,3.597.0341,5.3953.0646.5569.0095,1.1137.068,1.6687.1234a1.317,1.317,0,0,1,1.2993,1.533c-.0209,1.7991-.0388,3.5994.0066,5.3975a1.6431,1.6431,0,0,1-1.4946,1.8408,34.636,34.636,0,0,1-13.1.1842c-4.7013-.9247-7.14-3.5234-7.867-8.2869a40.249,40.249,0,0,1-.475-5.8411c-.0478-9.3561-.0215-18.7127-.0215-28.0691Z" transform="translate(-3.5717 -2.3952)" fill="#fff"/><path d="M474.88,54.83a20.2786,20.2786,0,0,1,7.9448-3.75,39.6563,39.6563,0,0,1,5.3326-.6226c1.2124-.0759,1.8382.6194,1.8505,1.8353.0219,2.1586.0161,4.3175.0031,6.4762-.0078,1.2851-.4592,1.8645-1.742,1.9458a30.7209,30.7209,0,0,0-9.025,1.6621c-3.9416,1.4865-3.9482,1.469-3.9482,5.6926q0,16.3707-.0006,32.7412c0,2.4545-.5219,2.9842-2.9387,2.9883-2.2787.0038-4.5576.0171-6.836-.005-1.8647-.0181-2.53-.6978-2.53-2.5356q-.0035-23.8662,0-47.7326c0-1.8733.5412-2.411,2.4167-2.4145q3.4779-.0066,6.956,0c1.9184.0034,2.4148.492,2.4546,2.3869C474.8248,53.8519,474.85,54.2056,474.88,54.83Z" transform="translate(-3.5717 -2.3952)" fill="#fff"/><path d="M498.4881,77.2683q0-11.8758.0012-23.7515c.0007-1.8949.5124-2.4029,2.4126-2.4059,2.5591-.004,5.1183-.0092,7.6773.0025,1.5779.0073,2.1126.5186,2.1131,2.0616q.0095,24.1715.0009,48.3428c-.0006,1.5938-.63,2.2477-2.2558,2.2708-2.4787.0353-4.9582.024-7.4372.006-1.8775-.0136-2.51-.6625-2.51-2.5348Q498.4845,89.264,498.4881,77.2683Z" transform="translate(-3.5717 -2.3952)" fill="#fff"/><path d="M504.57,43.9183c-1.3993,0-2.7989.02-4.1976-.0056-1.4956-.0279-2.1165-.6564-2.1217-2.1181q-.0137-3.8379.0012-7.6757c.006-1.3194.6233-2.0421,1.945-2.0652,2.9574-.0518,5.9168-.0458,8.8745-.0033a1.785,1.785,0,0,1,1.9616,1.9539q.0762,3.9563.0019,7.9148c-.0268,1.39-.71,1.9734-2.1475,1.9946C507.4487,43.9349,506.0092,43.9184,504.57,43.9183Z" transform="translate(-3.5717 -2.3952)" fill="#fff"/><path d="M402.0922,134.8572c1.7019-.8513,3.2718-1.233,4.8758-.1176.1424.0991.4442.0224.6525-.0389.3423-.1008.661-.2806,1.0027-.3843,3.2511-.9868,5.06.3428,5.0709,3.7254.0063,2.078-.0368,4.157.0179,6.2335.0244.9319-.36,1.1627-1.21,1.1415-.81-.02-1.3969-.07-1.3689-1.1361.0545-2.0765.0633-4.1573-.0163-6.2322-.0217-.5651-.32-1.49-.6784-1.5925a4.98,4.98,0,0,0-2.2916.1831c-.1564.0342-.2762.5923-.28.91-.0238,2.1975-.05,4.3964.0046,6.5929.0252,1.0193-.377,1.2864-1.3455,1.2857-.9841-.0008-1.2316-.3976-1.213-1.2925.0418-1.9972.0673-3.9983-.0225-5.9923-.0273-.6049-.3472-1.6-.7214-1.6978a4.0231,4.0231,0,0,0-2.243.3661c-.2391.0906-.3676.7372-.3743,1.1325-.036,2.1173-.0566,4.2366,0,6.353.0256.9589-.41,1.1282-1.2316,1.1193-.8349-.0089-1.366-.1247-1.348-1.1644.0485-2.7964-.0073-5.5946.0367-8.3912.0085-.54.1548-1.4338.4586-1.5417C400.6025,134.0585,401.5341,133.9016,402.0922,134.8572Z" transform="translate(-3.5717 -2.3952)" fill="#fff"/><path d="M335.7016,134.7744c1.5392-.7589,3.076-1.1179,4.6587-.0887a1.1173,1.1173,0,0,0,.7589-.0182c.3452-.0891.6637-.2785,1.0074-.3774,3.18-.915,5.02.4192,5.0623,3.6934.027,2.0791-.0343,4.16.0222,6.2379.0272,1.001-.42,1.1966-1.3027,1.2007-.8911.0041-1.3148-.1941-1.28-1.2014.0684-1.9972.0344-3.9984.0149-5.9977-.0174-1.7987-.8373-2.3474-2.5594-1.8217a1.038,1.038,0,0,0-.8447,1.2064c.0434,2.2386-.01,4.479.03,6.7177.0153.8547-.3245,1.11-1.1381,1.091-.79-.0181-1.4312-.0161-1.4122-1.092.0367-2.0788.0529-4.16-.0214-6.2371-.02-.5746-.3-1.5507-.6182-1.62a4.6238,4.6238,0,0,0-2.2523.3158c-.2156.0691-.37.6521-.3752,1.0024-.0339,2.1589-.0529,4.3195-.0009,6.4776.0224.9273-.3588,1.171-1.2106,1.1531-.8029-.0169-1.39-.0408-1.369-1.1211.053-2.7583-.0057-5.5186.0353-8.2773.0088-.588.1381-1.604.4081-1.6749a7.1946,7.1946,0,0,1,2.2928.1066Z" transform="translate(-3.5717 -2.3952)" fill="#fff"/><path d="M264.2641,134.8192c1.6135-.79,3.22-1.2171,4.8637-.0669.1549.1084.5124-.036.7628-.1083.4572-.1321.8943-.3521,1.3579-.4411,3.0648-.5888,4.5083.5322,4.5939,3.6341.06,2.1563-.0153,4.316.0246,6.4732.0177.953-.4556,1.1165-1.2683,1.1061-.7843-.01-1.3049-.1063-1.2841-1.0884.044-2.077.0378-4.1562,0-6.2335-.0288-1.5909-.6887-2.09-2.2178-1.7866-.7892.1564-1.2257.4792-1.1885,1.4374.0851,2.1946-.013,4.3957.0436,6.5921.0259,1.0033-.4947,1.0827-1.2715,1.0748-.7684-.0079-1.3235-.0866-1.3038-1.08.0422-2.1171.0085-4.2357.0138-6.3537.0023-.9134-.1183-1.7084-1.3078-1.72-1.292-.012-1.9813.5794-1.9848,1.7523-.0063,2.078-.0377,4.1569.0125,6.2337.0244,1.0105-.4593,1.18-1.326,1.1759-.8429-.0035-1.2435-.2231-1.2307-1.147.0382-2.7569-.0108-5.5149.0316-8.2716.009-.5852.1511-1.5965.4224-1.6658a7.023,7.023,0,0,1,2.2686.132Z" transform="translate(-3.5717 -2.3952)" fill="#fff"/><path d="M544.4889,143.8312a2.6256,2.6256,0,0,1-.2759-3.2542.9916.9916,0,0,0-.0707-.7493c-1.2464-3.0078.2124-5.3939,3.4994-5.5977,1.5133-.0939,3.038-.0717,4.5541-.0139.4718.018,1.2619.2477,1.3254.5174.1106.469-.2306,1.0445-.3824,1.5753l-.3212-.036a9.5021,9.5021,0,0,1,.2936,1.144c.3053,2.3032-.9685,3.8527-3.45,4.0909-.9028.0867-1.8275-.08-2.7412-.0661a3.5554,3.5554,0,0,0-.9784.3087c.2443.2651.4436.683.74.77,1.6045.4707,3.2484.8087,4.8479,1.2939a2.2959,2.2959,0,0,1,1.8553,2.3371c-.002,1.6711-.6359,2.73-2.2929,3.002a13.8561,13.8561,0,0,1-4.38.1037C543.6383,148.7594,542.7824,146.5821,544.4889,143.8312Zm6.0992-5.8981c-.0034-1.21-.72-1.8269-2.1376-1.8408-1.3516-.0132-2.2065.6819-2.2259,1.81-.02,1.1375.778,1.791,2.1995,1.8022C549.9,139.7159,550.5916,139.15,550.5881,137.9331Zm-1.6872,9.6544a2.6423,2.6423,0,0,0,.9656-.1873c.3726-.19.9095-.6077.8877-.8877a1.5343,1.5343,0,0,0-.8241-1.0642,9.6885,9.6885,0,0,0-2.6331-.6907,1.33,1.33,0,0,0-1.0682.7C545.7747,146.8967,546.59,147.5964,548.9009,147.5875Z" transform="translate(-3.5717 -2.3952)" fill="#fff"/><path d="M318.3788,130.7469v1.9737c-1.242,0-2.4554-.0006-3.6688,0-2.4671.0016-3.49,1.0053-3.513,3.4692-.0125,1.3182-.037,2.6379.0081,3.9548.0772,2.2537,1.4674,3.3884,3.71,3.153.657-.0689.91-.3266.8957-.9742-.0251-1.158.0549-2.3208-.02-3.4744-.0715-1.0975.5632-1.1134,1.3538-1.11.75.0031,1.3223.03,1.2876,1.0565-.062,1.8356.019,3.6762-.05,5.5114-.013.3486-.4113.9457-.6846.9776a21.4911,21.4911,0,0,1-4.4077.238,4.7179,4.7179,0,0,1-4.6319-4.3822,25.19,25.19,0,0,1-.0117-6.1848,4.6674,4.6674,0,0,1,4.7774-4.4682A41.3174,41.3174,0,0,1,318.3788,130.7469Z" transform="translate(-3.5717 -2.3952)" fill="#fff"/><path d="M430.79,132.9188h-1.9939c-3.961,0-3.961,0-3.9667-1.118-.0061-1.1883-.0061-1.1883,4.0334-1.1883q1.7989,0,3.598,0c1.8685.0016,2.4541,1.0105,1.5405,2.6756-.2107.3841-.4738.74-.7175,1.1055q-2.4925,3.74-4.9854,7.4792c-.1911.2872-.3582.59-.725,1.1985h3.4181c.68,0,1.3625.0421,2.0381-.01.915-.0709,1.3821.1431,1.38,1.22-.0024,1.07-.5326,1.1378-1.3513,1.1275-2.3183-.0291-4.6377.0138-6.9557-.0274-.5585-.01-1.551-.1581-1.59-.3761a3.5405,3.5405,0,0,1,.2071-2.2627c1.3336-2.2244,2.8371-4.3469,4.2762-6.5082q.9852-1.48,1.9679-2.9609Z" transform="translate(-3.5717 -2.3952)" fill="#fff"/><path d="M529.1761,134.4254a26.3529,26.3529,0,0,1,3.757-.2616,2.5724,2.5724,0,0,1,2.6338,2.4756c.211,2.66.239,5.34.2347,8.0105-.0017,1.05-.9649.6764-1.5775.7432-.648.0707-.9487-.2137-.9416-.894q.0306-2.937.0015-5.8745c-.021-2.3385-1.5388-3.1723-3.5667-1.9127a1.61,1.61,0,0,0-.5156,1.1817c-.0513,2.1169-.0635,4.2365-.01,6.3532.0259,1.0218-.47,1.17-1.327,1.1727-.894.0023-1.3015-.2411-1.2925-1.2232q.0583-6.3536-.0034-12.7079c-.0113-1.01.4186-1.2094,1.2928-1.1957.8152.0128,1.41.0682,1.33,1.14C529.1168,132.4557,529.1761,133.4891,529.1761,134.4254Z" transform="translate(-3.5717 -2.3952)" fill="#fff"/><path d="M450.7422,138.929a33.3956,33.3956,0,0,0,2.3859-3.2049c.8939-1.571,2.1755-1.7889,4.023-1.3543-.7515.93-1.4318,1.7747-2.1145,2.6171-.6759.834-1.3542,1.6662-2.0539,2.5267l4.07,5.58c-1.6408.7086-2.8524.4-3.7552-.8875q-1.1328-1.6158-2.2837-3.2189c-.0333-.0465-.1366-.0428-.3595-.1046,0,1.1811-.0414,2.3217.0124,3.4578.0476,1.0035-.5282,1.0706-1.2949,1.0706s-1.3048-.0693-1.2969-1.07q.051-6.5319,0-13.0643c-.0089-1.0973.686-.95,1.3621-.9691.6951-.02,1.2554.0093,1.232.98-.0491,2.0364-.0174,4.0749-.0108,6.1124C450.6594,137.7791,450.6984,138.1579,450.7422,138.929Z" transform="translate(-3.5717 -2.3952)" fill="#fff"/><path d="M352.1432,140.7073c.1576,1.9525.8122,2.6156,2.445,2.62,1.038.0027,2.0786-.0914,3.1127-.0388.323.0165.9057.3963.89.5646-.0448.476-.2647,1.2752-.5455,1.3348a9.8293,9.8293,0,0,1-5.8837-.0614,3.9,3.9,0,0,1-.5328-.2719c-2.0318-1.214-2.8512-5.3038-1.6468-8.2071.86-2.0719,3.1855-3.0495,5.7611-2.4213a4.9352,4.9352,0,0,1,3.2132,5.9163c-.0762.2375-.5872.4637-.9036.4741-1.5166.05-3.0357.019-4.5538.027C353.0716,140.6459,352.6445,140.6827,352.1432,140.7073Zm4.14-1.8655a2.0364,2.0364,0,0,0-1.7715-2.5726c-1.3936-.1266-2.26.8021-2.3009,2.5726Z" transform="translate(-3.5717 -2.3952)" fill="#fff"/><path d="M327.0269,140.6466c-.8783,0-1.7568.01-2.6349-.0035-.6565-.01-.8221.3073-.7178.91a2.04,2.04,0,0,0,2.0867,1.7681c1.1163.0229,2.236-.0755,3.35-.0289.33.0138.9246.3484.9182.5178-.0181.4788-.2091,1.31-.4658,1.3641-2.1064.4415-4.3129.9225-6.277-.2935a4.1941,4.1941,0,0,1-1.9064-2.4215,15.8349,15.8349,0,0,1,.03-5.4263c.3986-2.0665,2.5049-3.1971,4.7187-2.9813a4.3319,4.3319,0,0,1,4.2729,3.7909c.39,2.703.3073,2.7985-2.4164,2.7985h-.9582Zm.8469-1.766c.0407-1.1-.1689-2.0419-1.0985-2.3125a3.49,3.49,0,0,0-2.3149.2133,1.6312,1.6312,0,0,0-.6712,2.0992Z" transform="translate(-3.5717 -2.3952)" fill="#fff"/><path d="M224.6124,139.9026a14.61,14.61,0,0,1-.1456,2.1457,4.4171,4.4171,0,0,1-4.7347,3.5534c-2.49-.1057-4.1539-1.455-4.4518-3.8509a16.08,16.08,0,0,1,.0261-4.05,4.2674,4.2674,0,0,1,4.7158-3.6607,4.3736,4.3736,0,0,1,4.5415,4.1812c.0332.5578.0049,1.1193.0049,1.6792Zm-2.621-.0931h.0261c0-.48.0369-.9631-.0072-1.4388a2.154,2.154,0,0,0-1.9293-2.1029,1.9621,1.9621,0,0,0-2.2508,1.8245,14.6734,14.6734,0,0,0,.0262,3.56,1.8414,1.8414,0,0,0,2.11,1.68,2.0318,2.0318,0,0,0,2.0112-1.8473A11.5019,11.5019,0,0,0,221.9914,139.81Z" transform="translate(-3.5717 -2.3952)" fill="#fff"/><path d="M521.2484,138.6605c.2789-1.9747-.1079-2.4483-1.9851-2.46-1.07-.0064-2.14-.0012-3.2054-.0012-.4485-1.56-.2436-1.9108,1.2952-1.9882a22.0185,22.0185,0,0,1,3.5668.0034,3.0625,3.0625,0,0,1,2.9587,3.2893c.0489,2.1547.02,4.3112.0167,6.4669-.0018,1.3666-.915,1.8842-2.1747,1.2977a2.09,2.09,0,0,0-1.1172-.11,16.0239,16.0239,0,0,1-2.0912.4175c-1.9786.0045-3.1-1.0127-3.2367-2.7841-.1751-2.2656.6006-3.4141,2.6848-3.7956C519.01,138.8043,520.0886,138.7734,521.2484,138.6605Zm.1193,2.9823c.0477-.6164.1027-1.3188-1.1037-1.2632-1.71.0789-2.3978.5242-2.4362,1.7723-.0323,1.0524.5064,1.41,1.4721,1.4026C520.8593,143.5419,521.3623,143.135,521.3677,141.6428Z" transform="translate(-3.5717 -2.3952)" fill="#fff"/><path d="M394.081,138.66c.1869-2.0651-.1452-2.4526-2.0694-2.4572-.518-.0012-1.036.0392-1.5543.048-.5164.0088-1.033.002-1.5378.002-.57-1.5049-.3308-1.96,1.1637-2.0385a22.3621,22.3621,0,0,1,3.6856.0072,3.029,3.029,0,0,1,2.8988,3.2173c.0588,2.1535.0278,4.31.0279,6.4647,0,1.465-.8981,1.9823-2.2135,1.3314a1.8061,1.8061,0,0,0-1.0129-.0989,14.4094,14.4094,0,0,1-2.2088.4311c-1.9964-.0221-3.0718-1.0332-3.1931-2.8224-.1529-2.2578.6239-3.3732,2.7377-3.7549C391.8527,138.8,392.9293,138.77,394.081,138.66Zm.0863,2.9893c.09-.7047.0211-1.3243-1.1362-1.2685-1.7245.0832-2.3787.5254-2.4042,1.8006-.0214,1.0694.5546,1.386,1.5034,1.3724C393.6989,143.531,394.165,143.14,394.1673,141.6491Z" transform="translate(-3.5717 -2.3952)" fill="#fff"/><path d="M369.59,134.5073a23.8661,23.8661,0,0,1,3.7021-.3238,2.3426,2.3426,0,0,1,2.4282,2.35c.1777,2.7028.18,5.4193.184,8.13.0013,1.0156-.8788.672-1.4577.7318-.6825.0705-1.0489-.1927-1.0426-.9373.0168-1.9963.0717-3.9964-.035-5.9872-.0384-.7163-.403-1.9447-.7787-2.0093a7.3939,7.3939,0,0,0-2.9631.4076c-.1883.049-.3119.6792-.3173,1.0434-.03,2.0359-.0584,4.0738.0035,6.1083.0306,1.0042-.2207,1.4257-1.3233,1.4134-1.0519-.0118-1.2722-.4292-1.2569-1.3666.0442-2.7144-.0119-5.43.0378-8.1447.01-.5678.2105-1.5508.4872-1.613A7.4756,7.4756,0,0,1,369.59,134.5073Z" transform="translate(-3.5717 -2.3952)" fill="#fff"/><path d="M285.1024,144.9948a21.673,21.673,0,0,1-3.7237.479,2.5855,2.5855,0,0,1-2.68-2.6861c-.1293-2.5914-.0667-5.1924-.0827-7.7894-.0057-.9451.6921-.7709,1.2758-.8112.7517-.0519,1.2511.14,1.2454,1.0214-.0126,1.9182-.0063,3.8365,0,5.7547.0082,2.363,1.1968,3.1157,3.2676,1.9994a1.63,1.63,0,0,0,.7108-1.1762q.1065-3.1735.0146-6.3525c-.0323-1.0653.4535-1.2475,1.3747-1.2679.9927-.022,1.2166.3974,1.2042,1.29-.0386,2.7969.006,5.595-.0324,8.3919-.0069.5025-.18,1.3884-.4052,1.4324C286.4843,145.4341,285.5166,145.7828,285.1024,144.9948Z" transform="translate(-3.5717 -2.3952)" fill="#fff"/><path d="M465.0452,144.8533a19.872,19.872,0,0,1-2.8007.679,2.9787,2.9787,0,0,1-3.5973-3.1658c-.0781-2.3927-.0043-4.79-.0515-7.1841-.0184-.9389.4918-.9993,1.2156-1.005.7777-.0061,1.339.103,1.3285,1.0685-.0213,1.9558-.07,3.9154.0306,5.8663.037.7186.3782,1.9647.7284,2.0191a7.4034,7.4034,0,0,0,2.9323-.4314c.1867-.0507.2992-.68.304-1.0445.0283-2.1153.0456-4.2319,0-6.3467-.02-.9377.41-1.1395,1.24-1.1355.8369.004,1.3567.1154,1.3376,1.1575-.0518,2.8333.0076,5.6687-.04,8.5021-.0087.5159-.24,1.4142-.5009,1.4662C466.4334,145.4456,465.4754,145.7714,465.0452,144.8533Z" transform="translate(-3.5717 -2.3952)" fill="#fff"/><path d="M442.7875,144.9659a20.2547,20.2547,0,0,1-3.6112.5323c-1.8116-.0677-2.7733-1.1513-2.8392-3.0645-.0826-2.3965-.0125-4.798-.0622-7.1962-.0183-.885.3819-1.083,1.1653-1.0606.7373.0212,1.3831.019,1.3764,1.0208-.013,1.9594-.0653,3.9221.0327,5.8768.0363.7259.33,1.9564.7128,2.0432a6.2353,6.2353,0,0,0,2.8289-.3449c.2279-.0615.4114-.7133.4187-1.0975.04-2.1187.0583-4.2395.0034-6.3576-.0274-1.06.544-1.1289,1.3629-1.1439.8574-.0156,1.227.2468,1.2138,1.162-.0408,2.8387.0053,5.6786-.0332,8.5174-.0068.5017-.1937,1.394-.4086,1.4293C444.1586,145.4122,443.1729,145.8308,442.7875,144.9659Z" transform="translate(-3.5717 -2.3952)" fill="#fff"/><path d="M473.3029,134.5a21.8067,21.8067,0,0,1,3.5543-.3327,2.4761,2.4761,0,0,1,2.5471,2.5228c.1642,2.5871.1565,5.1856.2,7.78.0177,1.04-.7552.9018-1.44.9385-.7478.04-1.0907-.2018-1.0889-1.009.0047-2.1951.0142-4.394-.11-6.584-.08-1.4078-.4939-1.6439-1.964-1.5535-1.5084.0928-2.0447.5709-2.0469,1.84-.0037,2.078-.04,4.157.0151,6.2335.0266,1.0043-.5086,1.078-1.2808,1.0766-.7689-.0014-1.31-.0732-1.2952-1.0734.0418-2.8365-.01-5.6745.0347-8.511.0083-.5334.2053-1.4613.4631-1.5165A8.4557,8.4557,0,0,1,473.3029,134.5Z" transform="translate(-3.5717 -2.3952)" fill="#fff"/><path d="M233.3707,144.8366a17.6477,17.6477,0,0,1-2.3968.6742c-2.3661.33-3.8165-.8474-3.9056-3.2213-.0883-2.3548-.0244-4.7149-.07-7.0718-.0172-.9018.4518-1.046,1.2058-1.04.75.0058,1.3533.0283,1.3379,1.0346-.03,1.9578-.0734,3.92.03,5.873.0384.723.3523,1.9357.7539,2.0316a6.1344,6.1344,0,0,0,2.8268-.3358c.2319-.0619.4257-.7106.4335-1.0938.0422-2.0774.0586-4.157.0045-6.2339-.0264-1.0129.3641-1.2949,1.34-1.2913.978.0036,1.2308.3876,1.2183,1.2879-.0377,2.7171.0116,5.4355-.0326,8.1525-.01.5824-.1769,1.6043-.4313,1.6574a8.1177,8.1177,0,0,1-2.3636-.1563Z" transform="translate(-3.5717 -2.3952)" fill="#fff"/><path d="M208.808,132.8369c-1.1117,0-2.026-.0268-2.9379.0078-.8559.0324-.9562-.4553-.9549-1.1448.0012-.7028.1294-1.1143.9843-1.102q4.25.0607,8.501.0018c.8628-.0111.9718.4428.9837,1.1259.0127.7223-.2,1.17-1.0114,1.113-.1191-.0084-.2393-.0006-.3591.0009-2.5966.0341-2.5965.0341-2.5966,2.691,0,2.8737-.0375,5.7482.0192,8.6208.02,1.0256-.3672,1.2784-1.3269,1.276s-1.34-.25-1.3223-1.2806c.0573-3.2719.021-6.5453.0209-9.8182Z" transform="translate(-3.5717 -2.3952)" fill="#fff"/><path d="M505.0056,136.3214c-.94-.0629-1.8087-.1381-2.6788-.1725a5.0048,5.0048,0,0,0-1.4119.0767c-.2966.0755-.7032.3555-.749.6019a1.0957,1.0957,0,0,0,.47.8437c1.054.7167,2.237,1.2665,3.2061,2.0768a4.2135,4.2135,0,0,1,1.4674,2.1664,2.7165,2.7165,0,0,1-2.6388,3.4917,24.8622,24.8622,0,0,1-4.1522-.1028c-.7618-.0411-.9566-.5422-.9135-1.2486.0539-.8824.6589-.7431,1.2057-.715a16.94,16.94,0,0,0,2.5.1307,4.789,4.789,0,0,0,1.4772-.7151,4.7,4.7,0,0,0-.8613-1.2769c-.8587-.642-1.8288-1.1324-2.73-1.72a3.2,3.2,0,0,1-1.5981-3.5643,2.6893,2.6893,0,0,1,2.8672-2.0531,24.8967,24.8967,0,0,1,3.2111.09C505.223,134.3851,505.2557,134.48,505.0056,136.3214Z" transform="translate(-3.5717 -2.3952)" fill="#fff"/><path d="M385.714,136.3315c-.9789-.0721-1.8872-.1615-2.7975-.1968a4.6306,4.6306,0,0,0-1.4128.11c-.8246.232-.9455.8653-.2387,1.3636.9432.6649,1.9577,1.2278,2.9331,1.8479,1.6664,1.0591,2.1986,2.1479,1.8631,3.7728-.2582,1.2507-1.3467,2.1527-3.1513,2.2759a24.0227,24.0227,0,0,1-3.7978-.2437c-.8463-.0781-.9245-.7547-.7229-1.3237a1.331,1.331,0,0,1,1.0326-.5731c.9109-.0343,1.835.1751,2.7389.1022.4647-.0375.8974-.47,1.3446-.7235a4.1151,4.1151,0,0,0-.7758-1.207c-.8621-.638-1.825-1.1379-2.7312-1.7187a3.2415,3.2415,0,0,1-1.6882-3.6386,2.7312,2.7312,0,0,1,2.8842-2.0479,23.9071,23.9071,0,0,1,3.2122.1019C385.9391,134.3862,385.9847,134.4983,385.714,136.3315Z" transform="translate(-3.5717 -2.3952)" fill="#fff"/><path d="M297.5075,136.328c-.9557-.0685-1.8661-.15-2.7783-.1924a4.0788,4.0788,0,0,0-1.2988.0758,1.1632,1.1632,0,0,0-.7558.6194,1.073,1.073,0,0,0,.46.8388c.9565.65,1.9679,1.2187,2.947,1.8366,1.5424.9735,2.0877,2.0922,1.7746,3.5874-.2933,1.4011-1.2026,2.2441-3.0353,2.3925a18.01,18.01,0,0,1-3.919-.2388c-1.22-.1716-.61-1.1121-.68-1.937,1.2372.07,2.3818.2123,3.518.1626a4.6061,4.6061,0,0,0,1.5011-.6625,4.9375,4.9375,0,0,0-.8848-1.377c-.8153-.6324-1.7617-1.0925-2.63-1.66a3.122,3.122,0,0,1-1.5941-3.5535c.2922-1.3015,1.0191-1.9114,2.8287-2.0724a17.2134,17.2134,0,0,1,3.3353.099C297.7221,134.3991,297.84,134.6387,297.5075,136.328Z" transform="translate(-3.5717 -2.3952)" fill="#fff"/><path d="M258.7843,136.322c-.9371-.0666-1.8063-.1426-2.6772-.1842a3.8623,3.8623,0,0,0-1.2991.0611,1.3912,1.3912,0,0,0-.8367.6881c-.07.19.2668.646.529.8219.9613.6447,1.9784,1.2053,2.9546,1.8287a3.1419,3.1419,0,0,1,1.7019,3.6216,2.8863,2.8863,0,0,1-2.9637,2.3216,24.5683,24.5683,0,0,1-4.0384-.2427c-.8427-.0751-.7466-.7789-.6159-1.2748a1.1373,1.1373,0,0,1,.8754-.6c.9535-.0278,1.9154.1613,2.8652.108.4424-.0248.8645-.414,1.2957-.638-.2508-.447-.3987-1.0295-.773-1.3138-.8866-.6732-1.8926-1.1866-2.8286-1.798a3.1569,3.1569,0,0,1-1.5775-3.3491c.3112-1.4176,1.0349-2.05,2.8515-2.2165a17.2139,17.2139,0,0,1,3.2172.0717C259.0086,134.3772,259.0719,134.5167,258.7843,136.322Z" transform="translate(-3.5717 -2.3952)" fill="#fff"/><path d="M508.8872,136.2951c-.8243-.5789-2.1251-.0083-2.1181-1.2971.0078-1.4283,1.3642-.4571,2.0243-1.0152.0783-.6078.1237-1.3192.2683-2.01.3278-1.5645,3.177-2.7155,4.4129-1.7239.3245.26.2858.9735.4451,1.6019-.5575.0394-.9049.0968-1.2493.082-.9745-.042-1.2034.54-1.2569,1.3635-.06.9221.5142.9262,1.1578.8965.6382-.0294,1.1874-.0077,1.217.8912.0326.9881-.5715,1.0237-1.2484.9458-.9361-.1078-1.1519.3314-1.1366,1.1815.0416,2.3162-.0151,4.6343.0274,6.9505.0166.9039-.2289,1.28-1.2156,1.2678s-1.3594-.3364-1.3405-1.323c.0421-2.1964.0129-4.3941.0126-6.5913Z" transform="translate(-3.5717 -2.3952)" fill="#fff"/><path d="M487.8127,131.8446c-2.2941.279-2.4214.4174-2.032,2.1961.6341.5279,2.1566-.5573,2.11,1.1794-.0181.67-.0227.67-2.2744.9369,0,.6647,0,1.3618,0,2.0589-.0005,2.0353-.0293,4.0712.0106,6.1057.019.9617-.4758,1.1-1.2765,1.0946-.7913-.0051-1.2932-.1214-1.2758-1.0943.0423-2.3538-.0145-4.7094.0263-7.0632.0139-.8042-.1494-1.2771-1.0627-1.3275-.5984-.033-1.2025-.1855-1.1068-1.0619.0975-.8933.7582-.68,1.2651-.6644.6981.0218.9394-.2941.8882-.9337-.1706-2.1334.881-3.3564,3.5135-3.2082C488.0222,130.1431,488.22,130.39,487.8127,131.8446Z" transform="translate(-3.5717 -2.3952)" fill="#fff"/><path d="M495.9488,143.5661v1.7851a12.8138,12.8138,0,0,1-1.7581.2416c-2.2282.0044-2.9278-.7078-2.9417-2.9377-.0112-1.7966-.0322-3.594.01-5.39.0188-.796-.1231-1.3188-1.0612-1.3117a1.4152,1.4152,0,0,1-.9045-.2454,1.2412,1.2412,0,0,1-.3539-.9038c.0185-.2152.398-.5854.59-.5691,1.1847.1007,1.9426-.1513,1.7791-1.5783-.0195-.1706.3742-.4926.6287-.5684a12.1239,12.1239,0,0,1,1.6808-.2548c.0882.7643.1718,1.4878.2481,2.1492.6646.5776,2.1365-.45,2.1172,1.168-.0187,1.5688-1.4.5188-2.165,1.17,0,2.1139-.0154,4.41.029,6.7054.0035.1839.397.4644.6473.5161A7.8816,7.8816,0,0,0,495.9488,143.5661Z" transform="translate(-3.5717 -2.3952)" fill="#fff"/><path d="M241.6443,134.7142a12.8229,12.8229,0,0,1,1.5768-.5165c.5343-.1057,1.2726-.4417,1.3046.5959.022.7131.1483,1.4023-.9881,1.4982-2.029.1713-2.1619.4031-2.1623,2.43,0,1.8735-.0431,3.7483.0163,5.62.0318,1.0031-.4981,1.0756-1.27,1.0706-.761-.0049-1.318-.0609-1.3046-1.0613.0379-2.83-.01-5.6605.0328-8.49.0082-.54.192-1.4806.4453-1.535a7.986,7.986,0,0,1,2.2751.1234Z" transform="translate(-3.5717 -2.3952)" fill="#fff"/><path d="M538.5692,139.7972c0-1.5155.0386-3.0322-.0137-4.5458-.0345-.9976.5219-1.0733,1.2908-1.0727.7649.0006,1.3.0618,1.2842,1.0685q-.07,4.5452,0,9.092c.0154,1.0029-.5114,1.0741-1.28,1.0725-.765-.0016-1.3289-.0675-1.2945-1.0687C538.6076,142.8293,538.5693,141.3126,538.5692,139.7972Z" transform="translate(-3.5717 -2.3952)" fill="#fff"/><path d="M361.4493,139.6721c0-1.4756.0386-2.9525-.0134-4.4262-.0355-1.0026.5322-1.0649,1.2958-1.0673.77-.0024,1.2943.0726,1.2789,1.074q-.07,4.5453,0,9.0921c.0153,1.0081-.5223,1.0655-1.2857,1.067-.77.0014-1.3229-.0779-1.2894-1.0742C361.4876,142.784,361.4493,141.2274,361.4493,139.6721Z" transform="translate(-3.5717 -2.3952)" fill="#fff"/><path d="M249.0338,139.8516c0,1.4766-.0433,2.9548.0146,4.4291.0418,1.0664-.5658,1.1169-1.3717,1.1342-.8293.0179-1.2546-.19-1.2428-1.1269q.0567-4.4889,0-8.9788c-.0116-.9294.3989-1.1557,1.2362-1.1337.7991.021,1.4185.0546,1.3782,1.1273C248.9913,136.8171,249.0338,138.3352,249.0338,139.8516Z" transform="translate(-3.5717 -2.3952)" fill="#fff"/><path d="M300.2659,143.8873c-.1368-.8963.0169-1.4882,1.195-1.4864,1.1409.0018,1.2985.5512,1.2943,1.49-.0043.9519-.0791,1.5552-1.3267,1.55C300.1742,145.436,300.185,144.7711,300.2659,143.8873Z" transform="translate(-3.5717 -2.3952)" fill="#fff"/><path d="M416.4526,143.9037c-.1649-.968.0934-1.4818,1.218-1.5012,1.2258-.0212,1.3092.6107,1.3071,1.57-.0021.928-.107,1.4572-1.2651,1.4648C416.4837,145.4455,416.2938,144.8766,416.4526,143.9037Z" transform="translate(-3.5717 -2.3952)" fill="#fff"/><path d="M555.6338,143.93c-.15-.9524.0218-1.5306,1.1929-1.529,1.1471.0014,1.2889.5638,1.2886,1.496,0,.9589-.091,1.5527-1.3328,1.5434C555.5306,145.4311,555.52,144.7825,555.6338,143.93Z" transform="translate(-3.5717 -2.3952)" fill="#fff"/><path d="M247.7233,130.1531c.9318-.1648,1.3425.1364,1.3656,1.1814.0254,1.1447-.5136,1.28-1.4442,1.2862-.9557.0062-1.3468-.3062-1.34-1.3031C246.3127,130.2667,246.8042,129.9982,247.7233,130.1531Z" transform="translate(-3.5717 -2.3952)" fill="#fff"/><path d="M539.9525,132.5736c-.9532.1332-1.4721-.08-1.4534-1.1645.0165-.96.2853-1.3423,1.2968-1.3034.8711.0335,1.4149.0971,1.37,1.2052C541.1285,132.2427,540.9628,132.8,539.9525,132.5736Z" transform="translate(-3.5717 -2.3952)" fill="#fff"/><path d="M362.8327,132.5736c-.9531.1331-1.4724-.08-1.4536-1.1645.0165-.96.2851-1.3423,1.2967-1.3034.8711.0335,1.415.097,1.37,1.2051C364.0085,132.2424,363.843,132.8,362.8327,132.5736Z" transform="translate(-3.5717 -2.3952)" fill="#fff"/><path d="M522.8787,131.272c.14.8289-.1285,1.2327-1.072,1.2309-.8923-.0016-1.0566-.4005-1.0565-1.17,0-.7992.129-1.27,1.1052-1.2466C522.7341,130.1077,523,130.4683,522.8787,131.272Z" transform="translate(-3.5717 -2.3952)" fill="#fff"/><path d="M516.7448,131.3406c-.1255-.8216.1-1.2579,1.0646-1.2548.8921.0029,1.0637.3869,1.0641,1.1613,0,.7933-.1087,1.284-1.0937,1.2557C516.9224,132.4781,516.6082,132.1563,516.7448,131.3406Z" transform="translate(-3.5717 -2.3952)" fill="#fff"/></svg>